# xmcd
#
# Track frame offsets: 
#        150
#        17567
#        36717
#        53137
#        72264
#        96626
#        119503
#        134610
#        154525
#        172895
#        191025
#        209147
#        217377
#        240614
#        262164
#
# Disc length: 3843 seconds
#
# Revision: 0
# Processed by: cddbd v1.5.2PL0 Copyright (c) Steve Scherf et al.
# Submitted via: ExactAudioCopy v1.0b4
#
DISCID=f50f010f
DTITLE=Joe Satriani - Shockwave Supernova
DYEAR=2015
DGENRE=Blues Rock
TTITLE0=Shockwave Supernova
TTITLE1=Lost In A Memory
TTITLE2=Crazy Joey
TTITLE3=In My Pocket
TTITLE4=On Peregrine Wings
TTITLE5=Cataclysmic
TTITLE6=San Francisco Blue
TTITLE7=Keep On Movin'
TTITLE8=All Of My Life
TTITLE9=A Phase I'm Going Through
TTITLE10=Scarborough Stomp
TTITLE11=Butterfly And Zebra
TTITLE12=If There Is No Heaven
TTITLE13=Stars Race Across The Sky
TTITLE14=Goodbye Supernova
EXTD=
EXTT0=
EXTT1=
EXTT2=
EXTT3=
EXTT4=
EXTT5=
EXTT6=
EXTT7=
EXTT8=
EXTT9=
EXTT10=
EXTT11=
EXTT12=
EXTT13=
EXTT14=
PLAYORDER=
